# xmcd
#
# Track frame offsets:
#	150
#	42396
#	76744
#	97272
#	105402
#	113713
#	140411
#	203432
#	224260
#	266411
#	308926
#	344962
#	375182
#
# Disc length: 5393 seconds
#
# Revision: 1
# Processed by: cddbd v1.5PL3 Copyright (c) Steve Scherf et al.
# Submitted via: audiograbber 1.82.01
#
DISCID=b3150f0d
DTITLE=Johnny Winter - 1980-07-27 - Central Park,New York, NY - FM (90 Min Cdr)
DYEAR=1900
DGENRE=
TTITLE0=Johnny Winter - Hideaway
TTITLE1=Johnny Winter - Messin' With The Kid
TTITLE2=Johnny Winter - Boney Moronie
TTITLE3=Johnny Winter - drum solo
TTITLE4=Johnny Winter - Boney Moronie
TTITLE5=Johnny Winter - Mother In-Law Blues
TTITLE6=Johnny Winter - Sweet Papa John
TTITLE7=Johnny Winter - The Crawl
TTITLE8=Johnny Winter - Highway 61 Revisited
TTITLE9=Johnny Winter - Rollin' and Tumblin'
TTITLE10=Johnny Winter - Come On In My Kitchen
TTITLE11=Johnny Winter - Johnny B - Goode
TTITLE12=Johnny Winter - Jumpin' Jack Flash
EXTD=
EXTT0=
EXTT1=
EXTT2=
EXTT3=
EXTT4=
EXTT5=
EXTT6=
EXTT7=
EXTT8=
EXTT9=
EXTT10=
EXTT11=
EXTT12=
PLAYORDER=
